<?xml version="1.0" encoding="utf-8"?>
<!-- Generator: Adobe Illustrator 20.1.0, SVG Export Plug-In . SVG Version: 6.00 Build 0)  -->
<svg version="1.1" id="Слой_1" xmlns="http://www.w3.org/2000/svg" xmlns:xlink="http://www.w3.org/1999/xlink" x="0px" y="0px"
	 width="186px" height="31px" viewBox="0 0 186 31" style="enable-background:new 0 0 186 31;" xml:space="preserve">
<g>
	<path d="M61.3,0.6h8.9l0,29.7h-8.9L48,14.4v15.8h-8.9V0.6h9.2l13,15.5L61.3,0.6z"/>
	<path d="M94.1,15.4h8.4l0,11.6c-1.7,1.1-3.7,2.1-6.1,2.8c-2.4,0.7-4.7,1.1-6.8,1.1c-3.1,0-5.8-0.7-8.2-2c-2.4-1.3-4.3-3.2-5.7-5.5
		c-1.4-2.3-2.1-5-2.1-8c0-2.9,0.7-5.6,2.2-7.9c1.4-2.3,3.4-4.2,5.9-5.5c2.5-1.3,5.4-2,8.6-2c2.3,0,4.6,0.4,6.9,1.3
		c2.3,0.8,4.3,2,5.8,3.4l-5.5,6.7c-1-1-2.1-1.8-3.5-2.3c-1.3-0.6-2.6-0.9-3.8-0.9c-1.2,0-2.4,0.3-3.4,0.9c-1,0.6-1.8,1.5-2.4,2.6
		c-0.6,1.1-0.8,2.3-0.8,3.7c0,1.4,0.3,2.7,0.9,3.8c0.6,1.1,1.4,2,2.4,2.6c1,0.6,2.2,0.9,3.4,0.9c1.1,0,2.4-0.3,3.9-1L94.1,15.4z"/>
	<path d="M106.4,0.6h9.8v21.5h12.4v8.2h-22.2V0.6z"/>
	<path d="M131.8,0.6H157V8h-15.3v3.6h13.9v7.5h-13.9v3.7h15.7v7.5h-25.5V0.6z"/>
</g>
<polygon points="33.5,31.3 33.5,1.3 25.4,1.3 25.2,1.3 0.4,31.3 12.3,31.3 24.5,16.8 24.4,31.3 "/>
<path d="M178.9,22l4-4.7c1.8-2.1,2.6-4.2,2.6-6.8c0-3.2-1.5-5.4-2.7-6.7c-2.2-2.2-5.6-3.7-10-3.7c-4.2,0-8.1,1.4-10.5,4
	c-1.5,1.7-2.7,4.5-2.9,7.6h10.5c0.1-0.8,0.3-1.4,0.6-1.9c0.3-0.4,0.8-0.9,1.9-0.9c0.7,0,1.3,0.1,1.8,0.6c0.5,0.4,0.7,1,0.7,1.6
	c0,1.6-0.9,3-1.7,4.1l-12.4,15.1h24.9V22H178.9z"/>
</svg>
