<?xml version="1.0" encoding="utf-8"?>
<!-- Generator: Adobe Illustrator 20.1.0, SVG Export Plug-In . SVG Version: 6.00 Build 0)  -->
<svg version="1.1" id="Слой_1" xmlns="http://www.w3.org/2000/svg" xmlns:xlink="http://www.w3.org/1999/xlink" x="0px" y="0px"
	 width="19.5px" height="20px" viewBox="0 0 19.5 20" style="enable-background:new 0 0 19.5 20;" xml:space="preserve">
<line x1="17.8" y1="17.9" x2="17.8" y2="18.5"/>
<line x1="1.8" y1="18.5" x2="1.8" y2="17.9"/>
<line x1="9.4" y1="16.1" x2="10.1" y2="16.1"/>
<path d="M9.8,8c-4.4,0-8,4-8,8h16C17.8,12,14.2,8,9.8,8z"/>
<rect x="1.8" y="18" width="16" height="2"/>
<rect x="5.8" y="5" width="8" height="2"/>
<rect x="8.8" y="7" width="2" height="2"/>
<rect x="8.8" width="2" height="3"/>
<rect x="16.8" y="3" transform="matrix(0.7071 0.7071 -0.7071 0.7071 8.4154 -11.2332)" width="2" height="3"/>
<rect x="0.8" y="3" transform="matrix(-0.7071 0.7071 -0.7071 -0.7071 6.2292 6.5031)" width="2" height="3"/>
</svg>
