<?xml version="1.0" encoding="utf-8"?>
<!-- Generator: Adobe Illustrator 20.1.0, SVG Export Plug-In . SVG Version: 6.00 Build 0)  -->
<svg version="1.1" id="New_Layer" xmlns="http://www.w3.org/2000/svg" xmlns:xlink="http://www.w3.org/1999/xlink" x="0px" y="0px"
	 width="143.4px" height="120px" viewBox="0 0 143.4 120" style="enable-background:new 0 0 143.4 120;" xml:space="preserve">
<style type="text/css">
	.st0{fill-rule:evenodd;clip-rule:evenodd;fill:#ffffff;}
</style>
<g>
	<path class="st0" d="M65.5,0c0,0.1-0.3,1.1-0.5,2.2c-1.5,7.5-4.4,16.1-7.4,22.1c-0.6,1.1-1.2,2.3-1.4,2.6c-0.2,0.3-0.4,0.6-0.4,0.6
		c0,0,1-0.1,2.3-0.2l2.3-0.3l-0.1,2c-0.2,3.7-1,12.4-1.1,12.6c0,0-0.6-0.9-1.3-2.1c-3.8-6.5-7.7-12.8-7.9-12.6
		c-0.1,0.1-0.3,0.8-0.6,1.6c-2.1,6.3-5,12.7-8,17.3c-0.9,1.4-1.2,1.9-1,1.9c0.1,0,1.3-0.2,2.5-0.4c1.2-0.2,2.2-0.4,2.3-0.4
		s-0.2,0.9-0.4,2.1c-0.5,2.5-0.7,4.6-0.8,9c-0.1,2.3-0.2,3.4-0.3,3.5c-0.1,0-0.7,0.2-1.3,0.3c-3.4,0.8-6.3,2.7-8.2,5.2
		c-1,1.4-2.1,3.8-2.7,5.9c-0.3,1.1-0.5,2-0.5,2.1s-0.3,0.4-0.7,0.6c-2.5,1.4-4.5,3.7-5.1,5.7c-1,3.4,0.9,7.4,4.4,9.1
		c1.9,0.9,3.3,1.2,6.2,1.3c4.9,0.2,9.5-0.7,19.6-3.6c8.4-2.4,22.2-5.7,28.8-6.9c10.5-1.9,18.9-2.2,25.5-0.7
		c4.4,0.9,7.6,2.4,11.7,5.3c0.3,0.2,0.3,0.2,0-0.3c-2.4-3.4-8.8-6.3-17.2-7.7c-4.5-0.7-6.6-0.9-12.3-0.9c-5.7,0-7.3,0.1-12.8,0.9
		c-5.6,0.8-9.7,1.6-21.9,4.4c-8.3,1.9-14.3,3.1-16.7,3.5c-3,0.5-6.4,0.2-8.2-0.6c-1-0.5-1.5-0.9-1.8-1.6c-0.3-0.7-0.3-1.1,0-2
		c0.2-0.7,1.5-2.6,1.7-2.6c0.1,0,0.2,0.2,0.4,0.5c0.4,0.8,1.9,2.1,2.9,2.6C39,83.6,44,83,46.6,80.5c0.6-0.6,1-1.3,1.4-2
		c0.5-1.1,0.6-1.3,0.6-2.4c0-1-0.1-1.3-0.4-2c-0.5-1-1.6-1.9-2.8-2.5c-2.3-1.1-5.8-0.6-10.8,1.4c-0.7,0.3-1.3,0.4-1.3,0.4
		c-0.1-0.2,0.7-3,1.1-4c0.6-1.4,1.4-2.6,2.5-3.7c1.5-1.5,3.7-2.6,6.7-3.3l1.5-0.4l0.1-3.5c0.1-5.1,0.6-8.4,1.6-10.2c1-2,3.3-3,6.7-3
		c2.1,0,2.5,0.2,2.9,1.1c0.3,0.7,0.3,1.2,0.3,6.1c0,4.3-0.1,5.7-0.3,7.2c-0.1,1-0.3,1.9-0.3,2.1c-0.1,0.3-0.2,0.3-2.9,0.3
		c-2.3,0-3.2,0.1-4.6,0.3c-2.2,0.4-4.5,1.2-6.1,2c-1.2,0.6-2.5,1.4-2.3,1.4c0,0,0.8-0.3,1.7-0.6c5-1.9,9.6-2.3,12.4-1
		c1.1,0.5,2.2,1.4,2.9,2.4c0.5,0.8,0.6,0.9,0.7,0.5c0-0.2,0.3-3.2,0.6-6.6c0.8-9.7,1.4-15.5,1.9-18.5c0.1-0.5,0.4-2.7,0.7-4.8
		c0.3-2.1,0.7-4.7,1-5.6c0.9-3.4,2.4-5.5,4-5.5c1.5,0,2.6,1.4,3.1,4.4c0.1,0.7,0.9,8.4,0.9,9.1c0,0.2-0.2,0.3-1.8,0.3
		c-1.8,0-3.1,0.3-4.7,0.8L62.9,41l1.4,0.1c3.4,0.2,6,1.7,8.3,4.7c2,2.7,3.3,5.6,5.3,11.8c0.7,2.1,1.3,3.9,1.3,3.9
		c0.1,0.1,0.6-0.1,1.3-0.5c1.6-0.8,3-1.3,6.7-2.2l3.1-0.8l0.1-0.6c0.2-1.1,0.1-4.3-0.1-6c-0.1-0.9-0.2-1.7-0.2-1.9
		c0-0.1,2.3,2,5,4.7c4.2,4.1,5,4.9,4.7,5c-0.1,0.1-2.6,0.6-5.3,1.1c-11.1,2.2-12.8,2.5-15.9,3.2c-10.7,2.4-19.3,5.5-24.9,9
		c-1.9,1.2-2,1.4-0.5,0.8c0.7-0.3,2.5-0.8,4-1.3c14.8-4.3,31.9-5,44.7-1.9c3.7,0.9,7.7,2.4,10.5,3.9c0.7,0.4,1.4,0.7,1.4,0.7
		c0.2,0-1.1-4.3-2.9-9.8c-1.9-5.8-2.4-8.2-2.7-11.5c-0.1-1.4-0.1-1.5-0.6-2.1c-1.6-1.9-5.2-3.6-10.4-4.9c-1-0.2-1.7-0.4-1.7-0.5
		c0.1-0.1,5.5,0.3,7.4,0.6c1.1,0.2,2.6,0.5,3.4,0.7c0.8,0.2,1.4,0.4,1.4,0.3c0,0,1.1-10.7,1.1-11.1c0-0.2-2.8-0.1-4.9,0l-0.9,0.1
		v2.7v2.7h-2.1H99v-2.7V37h-1.2c-0.7,0-1.6,0-2,0.1l-0.8,0.1v2.6v2.6h-2.1h-2.1v-2.5v-2.5h-2.4c-1.3,0-2.4,0-2.4,0.1
		c0,0.1,0.2,1,0.4,2c0.9,4.4,1.1,9.5,0.6,12.2c-0.3,1.3-0.9,3-1.1,3c0,0-0.3-0.4-0.5-0.9c-0.6-1.1-1.9-3.1-3-4.4
		c-2.1-2.5-6.2-6-9.1-7.8c-0.7-0.4-1.3-0.8-1.3-0.9c-0.1-0.3-0.4-12.1-0.3-13c0.1-0.5,0.1-0.8,0.1-0.8c0,0,0.4,0.1,0.9,0.3
		c0.9,0.3,3.6,0.7,3.7,0.6c0-0.1-0.3-0.8-0.8-1.6c-1.3-2.1-4-7.7-5-10.2c-1.6-4.1-3.1-8.9-4.4-14C65.8,0.8,65.5-0.1,65.5,0z
		 M64.9,11.2c-0.3,2.6-0.9,6.4-1.5,8.8c-0.2,0.9-0.3,1.6-0.3,1.7c0.1,0.1,1,0.4,2.2,0.8c3.4,1.1,3.4,1.1,0.3,1.1
		c-1.5,0-3.3,0.1-4.1,0.1l-1.4,0.1l0.3-0.8c1-2.5,1.8-4.9,2.4-6.9c0.7-2.1,1.7-6.4,2-7.8L65,7.7l0,0.6C65.1,8.6,65,9.9,64.9,11.2z
		 M50.5,35.1c-0.1,1-0.4,2.7-0.6,3.9c-0.3,1.2-0.4,2.3-0.4,2.3c0,0.1,0.6,0.2,1.4,0.2c1.5,0.1,4.1,0.6,5,0.9l0.6,0.2l-0.4,0.1
		c-0.9,0.2-10.1,1-10.2,1c0,0,0.2-0.5,0.5-1.1c1.6-2.8,3.3-6.7,4-9.1C50.6,32.2,50.7,32.7,50.5,35.1z M43.7,73.8
		c0.8,0.6,1.1,1.2,1.1,2.4c0,3.1-2.4,4.5-6.2,3.5c-2-0.5-4.1-1.8-4.7-3c-0.2-0.4-0.2-0.4,0.4-0.9c1.1-0.8,3.7-1.9,5.4-2.2
		c0.4-0.1,1.3-0.1,2.1-0.1C43,73.5,43.3,73.6,43.7,73.8z"/>
	<path class="st0" d="M64.6,31.7c-0.4,0.5-0.7,1.6-0.7,2.9v0.9l0.9-0.1c1.7-0.2,1.7-0.1,1.7-1c0-1.7-0.5-3.1-1.2-3.1
		C65.1,31.2,64.8,31.4,64.6,31.7z"/>
	<path class="st0" d="M64.7,44.4c-1.9,0.4-2.9,3.7-3.1,10l-0.1,2.3l1.2,0.1c0.6,0,1.9,0.1,2.8,0.2c0.9,0,2,0.1,2.5,0.2l0.9,0.1
		l-0.1-2.7C68.5,47.2,67.1,43.8,64.7,44.4z"/>
	<path class="st0" d="M49.8,49.1c-0.7,0.3-1.2,1.8-1.4,4.3c-0.1,2-0.3,1.8,1.8,1.5c0.7-0.1,1.4-0.2,1.5-0.3c0.2-0.2-0.1-3.5-0.4-4.4
		c-0.2-0.6-0.7-1.3-1-1.3C50.2,49,49.9,49,49.8,49.1z"/>
	<path class="st0" d="M36,107c-2.2,0.7-3.1,2.8-2.1,4.8c0.4,0.8,0.9,1.3,3,2.6c1.5,1,1.8,1.3,1.9,2.5c0,0.8,0,1-0.3,1.4
		c-0.7,1-2.3,1.2-3.5,0.3c-0.3-0.3-0.8-0.8-1.1-1.3c-0.3-0.7-0.6-0.9-0.7-0.9c-0.3,0.1-0.3,1.4,0,2.3c0.3,0.9,1.1,1.2,3.1,1.2
		c1.4,0,1.6,0,2.3-0.5c2-1.1,2.4-3.8,0.8-5.6c-0.3-0.3-1.2-1-2.1-1.6c-0.9-0.6-1.8-1.3-1.9-1.5c-0.8-1.3-0.2-2.9,1.2-3.2
		c1.2-0.2,2.4,0.5,2.8,1.5c0.1,0.4,0.3,0.5,0.5,0.5c0.4,0,0.4-0.2,0.2-1.6c-0.1-0.7-0.2-0.9-0.5-1C39,107,36.4,106.9,36,107z"/>
	<path class="st0" d="M86.3,107c-0.6,0.1-1.8,0.5-2.4,0.8c-0.7,0.4-2,1.5-2.4,2.2c-1.6,2.6-1.1,6.4,1.2,8.2c1.6,1.3,3.4,1.8,5.8,1.7
		c2.4-0.1,4.6-0.8,3.7-1.1c-0.2-0.1-0.2-0.4-0.2-1.7c0-0.9,0.1-1.7,0.1-1.7c0.1-0.1,0.3-0.2,0.6-0.3c0.3-0.1,0.4-0.2,0.4-0.4
		c0-0.3-0.1-0.3-2.5-0.3l-2.5,0l0,0.3c0,0.3,0.2,0.4,0.9,0.5c0.6,0.1,0.9,0.2,1,0.5c0.2,0.4,0.3,2.4,0,2.9c-0.2,0.5-1.1,0.7-2.4,0.6
		c-2.3-0.2-3.8-1.3-4.7-3.4c-0.3-0.7-0.3-1.1-0.3-2.7c0-2.2,0.2-3,1.2-4c0.8-0.9,1.8-1.3,3.2-1.4c2.1-0.2,3.5,0.4,4.1,1.8
		c0.4,0.7,0.7,1,0.9,0.7c0-0.1,0-0.8-0.1-1.5l-0.2-1.4l-1.3-0.2C89.1,106.9,87.1,106.9,86.3,107z"/>
	<path class="st0" d="M119.3,107.3c-0.3,0.2-0.5,0.6-0.6,0.9c-0.1,0.8-3.3,9.1-3.9,10.2c-0.1,0.2-0.4,0.4-0.6,0.5
		c-0.8,0.2-0.9,0.2-0.9,0.5c0,0.3,0.1,0.3,2,0.3c1.9,0,2,0,2-0.3c0-0.2-0.1-0.3-0.6-0.4c-0.6-0.1-0.6-0.1-0.5-0.6
		c0-0.3,0.3-1.2,0.6-2.1l0.6-1.6h1.9h1.9l0.6,1.8c0.3,1,0.6,1.9,0.6,2c0.1,0.2,0,0.3-0.7,0.4c-0.3,0.1-0.4,0.2-0.4,0.4
		c0,0.3,0.1,0.3,2.3,0.3c2.2,0,2.3,0,2.3-0.3c0-0.2-0.2-0.3-0.7-0.4c-0.6-0.1-0.7-0.3-0.9-0.7c-0.2-0.3-1-2.7-2-5.4
		c-2.1-6.2-2-5.9-2.3-5.9C119.9,106.9,119.6,107.1,119.3,107.3z M120.7,113.6c0.1,0.2-0.1,0.3-1.4,0.3c-0.8,0-1.5-0.1-1.5-0.1
		c0-0.1,0.8-2.5,1.3-3.6l0.3-0.7l0.6,1.9C120.3,112.5,120.7,113.5,120.7,113.6z"/>
	<path class="st0" d="M0,107.5c0,0.2,0.1,0.3,0.6,0.4c0.3,0.1,0.7,0.3,0.8,0.5c0.3,0.4,3.5,8.3,4.3,10.4c0.4,1,0.5,1.2,0.7,1.2
		c0.3,0,0.4-0.2,0.9-1.5c1-2.7,3.6-8.6,4.4-9.9c0.2-0.4,0.4-0.5,0.9-0.6c0.5-0.1,0.7-0.2,0.7-0.4c0-0.3-0.1-0.3-2-0.3
		c-1.9,0-2,0-2,0.3c0,0.2,0.1,0.3,0.6,0.4c0.5,0.1,0.5,0.2,0.5,0.5c-0.1,0.6-3.3,8.4-3.5,8.4c0,0-0.1-0.2-0.2-0.4
		c-0.1-0.2-0.9-2.1-1.7-4.1c-0.8-2.1-1.5-3.9-1.5-4s0.1-0.2,0.3-0.2c0.5,0,0.8-0.2,0.8-0.5c0-0.3-0.1-0.3-2.2-0.3S0,107.2,0,107.5z"
		/>
	<path class="st0" d="M16.6,107.5c0,0.2,0.2,0.3,0.7,0.4c0.8,0.2,0.9,0.4,2.8,4.1l1.3,2.7l0,2c0,2.2,0,2.2-1,2.3
		c-0.4,0.1-0.6,0.2-0.6,0.4c0,0.3,0.1,0.3,2.7,0.3c2.6,0,2.7,0,2.7-0.3c0-0.2-0.1-0.3-0.6-0.4c-1.1-0.2-1.2-0.3-1.3-1.4
		c-0.1-0.6-0.1-1.6,0-2.2c0.1-1.2,0.1-1.3,0.9-2.8c0.5-0.9,1.3-2.2,1.9-3c0.9-1.3,1-1.5,1.6-1.7c0.5-0.1,0.6-0.3,0.6-0.4
		c0-0.2-0.3-0.2-2-0.3c-1.8,0-1.9,0-1.9,0.3c0,0.2,0.1,0.3,0.4,0.4c0.8,0.2,0.8,0.1,0.3,1.1c-0.3,0.5-0.9,1.7-1.4,2.7l-1,1.8
		l-1.2-2.4c-0.7-1.3-1.3-2.6-1.3-2.7c0-0.2,0.1-0.3,0.5-0.4c0.3-0.1,0.5-0.3,0.5-0.4c0-0.2-0.4-0.2-2.3-0.3
		C16.7,107.2,16.6,107.2,16.6,107.5z"/>
	<path class="st0" d="M46.1,107.5c0,0.2,0.2,0.3,0.7,0.5c0.7,0.2,0.7,0.2,0.8,0.9c0.2,1.1,0.1,9.7-0.1,9.9c-0.1,0.1-0.4,0.3-0.7,0.3
		c-0.3,0.1-0.5,0.3-0.5,0.4c0,0.2,0.4,0.2,2.4,0.3c2.3,0,2.4,0,2.4-0.3c0-0.2-0.1-0.3-0.6-0.4c-1-0.2-1-0.1-1-2.9l0-2.5l3.4,0l3.4,0
		l0,1.8c0,1,0,2.1-0.1,2.5c-0.1,0.7-0.2,0.7-0.8,0.9c-0.4,0.1-0.6,0.3-0.6,0.5c0,0.3,0.1,0.3,2.4,0.3c2.3,0,2.4,0,2.4-0.3
		c0-0.2-0.1-0.3-0.4-0.4c-0.8-0.2-0.9-0.2-1-0.6c-0.1-0.4-0.1-9.6,0-10.1c0.1-0.2,0.3-0.4,0.5-0.4c0.8-0.2,0.9-0.2,0.9-0.5
		c0-0.3-0.1-0.3-2.4-0.3s-2.4,0-2.4,0.3c0,0.2,0.2,0.3,0.6,0.5c0.6,0.2,0.6,0.2,0.7,0.9c0,0.4,0.1,1.4,0.1,2.3l0,1.6H53h-3.4v-2.1
		c0-1.2,0.1-2.2,0.1-2.3s0.4-0.3,0.7-0.4c0.3-0.1,0.6-0.3,0.6-0.4c0-0.2-0.4-0.2-2.4-0.3C46.3,107.2,46.1,107.2,46.1,107.5z"/>
	<path class="st0" d="M65.7,107.5c0,0.2,0.2,0.3,0.6,0.5c0.6,0.2,0.6,0.2,0.8,0.9c0.1,0.4,0.1,2.7,0.1,5.2c0,5.1,0,4.9-1.2,5.1
		c-0.4,0.1-0.7,0.2-0.7,0.3c0,0.2,0.7,0.2,4.8,0.3l4.8,0l0.4-1.3c0.2-0.7,0.4-1.4,0.3-1.5c-0.2-0.4-0.5-0.2-1,0.6
		c-0.7,1.2-1,1.3-3.3,1.3c-2.5,0-2.4,0.1-2.4-3v-2.3h1.5c1.6,0,1.9,0.1,2,1c0.1,0.5,0.4,0.7,0.7,0.5c0.1-0.1,0.2-0.7,0.1-2
		c0-1.8-0.1-1.9-0.3-1.9c-0.2,0-0.3,0.2-0.5,0.7c-0.3,0.8-0.5,0.9-2.2,0.9l-1.2,0l0-2.4l0-2.3l1,0c2.3-0.1,3.4,0.3,3.6,1.4
		c0.1,0.3,0.2,0.5,0.4,0.5c0.3,0,0.3-0.1,0.3-1c0-0.5-0.1-1.1-0.1-1.3l-0.1-0.3h-4.3C65.8,107.2,65.7,107.2,65.7,107.5z"/>
	<path class="st0" d="M98.9,107.3c-0.6,0.1-0.6,0.6,0.1,0.7c0.9,0.2,0.9,0.2,1,4.9c0,2.4,0,4.7-0.1,5.1c-0.1,0.7-0.1,0.7-0.8,1
		c-0.5,0.2-0.7,0.3-0.7,0.5c0,0.3,0.1,0.3,2.4,0.2c2.1,0,2.4-0.1,2.5-0.3c0-0.2-0.1-0.3-0.6-0.4c-0.8-0.2-0.9-0.3-0.9-2.9v-2h0.5
		c1,0,1.1,0.1,2.3,2c2,3.2,3,3.9,5,3.8c0.8,0,1-0.1,1-0.3c0-0.2-0.1-0.3-0.6-0.3c-0.5-0.1-0.8-0.3-1.5-1c-0.7-0.7-2.4-3.2-3.1-4.4
		c-0.1-0.1,0.2-0.4,0.6-0.6c0.8-0.5,1.4-1.4,1.6-2.3c0.1-0.8-0.3-2-0.9-2.6c-0.9-0.9-1.4-1-4.5-1C100.6,107.2,99.2,107.3,98.9,107.3
		z M104.1,108.2c1.1,0.5,1.7,1.7,1.5,3c-0.2,1.5-1.1,2.1-2.8,2.1h-1v-2.6c0-1.4,0-2.6,0.1-2.7C102.1,107.8,103.5,108,104.1,108.2z"
		/>
	<path class="st0" d="M131.2,107.3c-0.7,0.1-0.8,0.6-0.1,0.7c0.3,0.1,0.5,0.2,0.6,0.4c0.3,0.5,0.3,10,0,10.3
		c-0.1,0.1-0.4,0.3-0.7,0.3c-0.3,0.1-0.6,0.3-0.6,0.4c0,0.2,0.3,0.3,3.3,0.3c2.8,0.1,3.5,0.1,4.5-0.1c2.3-0.5,3.8-1.6,4.8-3.5
		c0.5-1,0.5-1.1,0.5-2.8c0-1.7,0-1.9-0.4-2.7c-0.9-1.8-2.4-2.9-4.6-3.3C137.2,107.2,132.8,107.1,131.2,107.3z M138.3,108.4
		c2.3,0.9,3.5,3.4,3.1,6.3c-0.2,1.4-0.8,2.5-1.6,3.3c-0.9,0.8-1.9,1.1-3.6,1.1c-1.5,0-2.1-0.2-2.3-0.9c-0.1-0.2-0.1-2.3-0.1-5.2
		l0-4.8l0.4-0.1C134.9,107.8,137.3,108,138.3,108.4z"/>
</g>
</svg>
